<svg width="302" height="137" viewBox="0 0 302 137" fill="none" xmlns="http://www.w3.org/2000/svg">
<g clip-path="url(#clip0_62_163)">
<path d="M277.646 77.4253C285.124 77.4253 291.185 71.3914 291.185 63.9483C291.185 56.5052 285.124 50.4713 277.646 50.4713C270.169 50.4713 264.107 56.5052 264.107 63.9483C264.107 71.3914 270.169 77.4253 277.646 77.4253Z" fill="#F2F2F2"/>
<path d="M277.646 67.4949C279.614 67.4949 281.209 65.907 281.209 63.9483C281.209 61.9896 279.614 60.4017 277.646 60.4017C275.678 60.4017 274.083 61.9896 274.083 63.9483C274.083 65.907 275.678 67.4949 277.646 67.4949Z" fill="#E6E6E6"/>
<path d="M276.995 64.0241C278.496 65.2429 278.953 67.1637 278.674 69.0185C278.331 71.0529 277.271 72.8989 275.684 74.2252C273.899 75.8042 271.722 76.8712 269.621 77.9638C267.691 78.9443 265.837 80.0651 264.072 81.317C257.317 86.2045 252.213 93.1637 249.292 100.93C246.376 108.682 245.593 117.482 247.809 125.517C248.906 129.492 251.123 133.782 255.255 135.278C258.549 136.47 263.045 135.702 264.722 132.323C266.523 128.694 264.01 124.614 260.773 122.812C256.576 120.476 251.564 122.183 247.789 124.547C243.634 127.15 240.293 130.885 235.955 133.218C234.002 134.301 231.829 134.932 229.597 135.064C227.548 135.144 225.502 134.83 223.573 134.138C219.569 132.686 216.123 130.023 213.717 126.523C210.961 122.535 209.728 117.647 209.503 112.859C209 102.147 213.251 92.1244 216.662 82.1896C218.495 77.0161 219.869 71.6924 220.766 66.2798C221.62 60.8397 221.924 55.3282 221.673 49.8278C221.447 44.9641 220.965 39.8782 218.809 35.4362C216.913 31.5302 213.447 28.3334 209.066 27.5274C207.091 27.1416 205.044 27.3756 203.208 28.1972C202.583 28.481 203.126 29.3982 203.748 29.1159C207.625 27.3552 212.208 29.0683 215.072 31.9112C218.416 35.231 219.645 40.1335 220.19 44.6572C221.415 55.3778 220.45 66.2344 217.351 76.5739C214.377 86.6292 209.699 96.2648 208.62 106.8C208.127 111.607 208.38 116.577 209.924 121.186C211.248 125.293 213.732 128.933 217.078 131.672C220.228 134.207 224.104 135.935 228.184 136.127C232.764 136.343 236.78 134.311 240.333 131.607C244.139 128.711 247.64 125.139 252.25 123.515C254.352 122.775 256.745 122.429 258.903 123.142C260.754 123.771 262.325 125.028 263.34 126.693C264.277 128.244 264.623 130.183 263.767 131.85C262.963 133.417 261.394 134.323 259.695 134.633C257.896 134.95 256.042 134.636 254.449 133.746C252.587 132.687 251.225 130.912 250.271 129.035C248.369 125.294 247.729 120.84 247.632 116.687C247.547 112.631 248.069 108.584 249.182 104.681C251.394 96.785 255.861 89.6975 262.04 84.278C263.596 82.9282 265.262 81.7077 267.019 80.6289C268.936 79.4529 270.982 78.5132 272.936 77.4035C274.859 76.3116 276.754 75.007 278.078 73.2102C279.206 71.6703 279.816 69.8141 279.819 67.9079C279.839 67.0311 279.664 66.1608 279.307 65.3593C278.949 64.5578 278.418 63.8449 277.751 63.2718C277.222 62.8425 276.462 63.5909 276.995 64.0241Z" fill="#CCCCCC"/>
<path d="M150.6 126.013C155.334 129.059 160.81 130.768 166.444 130.957C166.343 131.195 166.23 131.427 166.105 131.652C165.45 132.858 164.523 133.895 163.398 134.685C162.065 135.618 160.501 136.17 158.875 136.278C157.249 136.387 155.625 136.05 154.179 135.303C152.733 134.556 151.521 133.427 150.675 132.041C149.828 130.655 149.381 129.065 149.381 127.443V126.013H150.6Z" fill="#3F3D56"/>
<path d="M183.831 126.432V127.443C183.832 129.41 183.174 131.322 181.961 132.877C180.748 134.431 179.05 135.538 177.134 136.024C175.219 136.51 173.195 136.347 171.383 135.561C169.571 134.774 168.074 133.409 167.128 131.681C166.998 131.45 166.88 131.212 166.775 130.968C167.035 130.975 167.292 130.979 167.552 130.979C173.296 130.985 178.929 129.412 183.831 126.432Z" fill="#3F3D56"/>
<path d="M195.817 19.5452C195.55 19.5062 195.279 19.4814 195.008 19.4636C198.085 26.5223 198.298 34.4925 195.603 41.7042C195.874 41.6723 196.141 41.6297 196.408 41.5801C199.017 41.0768 201.363 39.6682 203.026 37.605C204.69 35.5417 205.564 32.9578 205.493 30.3131C205.422 27.6685 204.411 25.1347 202.639 23.1628C200.867 21.191 198.449 19.909 195.817 19.5452Z" fill="#3F3D56"/>
<path d="M140.096 19.4636C139.825 19.4814 139.555 19.5062 139.287 19.5452C136.655 19.909 134.237 21.191 132.465 23.1628C130.693 25.1347 129.682 27.6684 129.611 30.3131C129.54 32.9578 130.414 35.5417 132.078 37.605C133.741 39.6682 136.087 41.0768 138.696 41.5801C138.963 41.6297 139.23 41.6723 139.501 41.7042C136.806 34.4925 137.019 26.5223 140.096 19.4636Z" fill="#3F3D56"/>
<path d="M195.817 19.5451C192.882 12.5654 187.445 6.92096 180.562 3.70833C173.68 0.495705 165.844 -0.0557047 158.576 2.16123C151.308 4.37816 145.128 9.20515 141.235 15.7044C137.343 22.2037 136.016 29.9112 137.514 37.3295C139.011 44.7479 143.225 51.3474 149.337 55.8459C155.449 60.3445 163.023 62.4209 170.587 61.6717C178.151 60.9226 185.165 57.4014 190.267 51.7922C195.369 46.183 198.194 38.8863 198.193 31.3198C198.192 27.277 197.384 23.2748 195.817 19.5451ZM195.603 41.7041C192.997 48.6781 187.862 54.4284 181.21 57.8232C174.559 61.2181 166.871 62.0116 159.661 60.0476C152.451 58.0836 146.241 53.5043 142.252 47.2111C138.264 40.9179 136.786 33.3665 138.11 26.0433C139.434 18.7201 143.464 12.1555 149.407 7.6415C155.349 3.12751 162.774 0.991137 170.22 1.65285C177.665 2.31456 184.592 5.72642 189.638 11.2169C194.683 16.7074 197.481 23.8789 197.481 31.3198C197.479 34.8648 196.844 38.3812 195.603 41.7041Z" fill="#3F3D56"/>
<path d="M183.229 24.4039H151.875C150.222 24.4039 148.636 25.0578 147.466 26.2218C146.297 27.3857 145.64 28.9644 145.64 30.6104C145.64 32.2565 146.297 33.8352 147.466 34.9991C148.636 36.163 150.222 36.8169 151.875 36.8169H183.229C184.883 36.8169 186.468 36.163 187.638 34.9991C188.807 33.8352 189.464 32.2565 189.464 30.6104C189.464 28.9644 188.807 27.3857 187.638 26.2218C186.468 25.0578 184.883 24.4039 183.229 24.4039Z" fill="#3F3D56"/>
<path d="M167.552 67.8495C159.176 67.8533 151.133 71.1197 145.145 76.95C139.157 82.7802 135.699 90.7115 135.51 99.0474C135.321 107.383 138.416 115.462 144.134 121.555C149.852 127.648 157.738 131.272 166.106 131.652C166.444 131.67 166.786 131.681 167.128 131.681C167.271 131.688 167.41 131.688 167.552 131.688C176.057 131.688 184.213 128.325 190.226 122.339C196.24 116.353 199.618 108.234 199.618 99.7687C199.618 91.3032 196.24 83.1844 190.226 77.1984C184.213 71.2124 176.057 67.8495 167.552 67.8495ZM183.831 126.432C178.929 129.412 173.296 130.985 167.552 130.979C167.292 130.979 167.035 130.975 166.775 130.968C166.665 130.968 166.554 130.964 166.444 130.957C158.915 130.697 151.732 127.748 146.207 122.65C140.682 117.552 137.184 110.645 136.353 103.192C135.522 95.7385 137.414 88.2365 141.682 82.0569C145.95 75.8773 152.309 71.4328 159.598 69.5358C166.886 67.6387 174.617 68.4158 181.378 71.725C188.138 75.0342 193.476 80.6544 196.417 87.5586C199.358 94.4628 199.704 102.19 197.393 109.327C195.082 116.465 190.268 122.536 183.831 126.432Z" fill="#3F3D56"/>
<path d="M190.058 91.9072H176.044C175.067 91.9072 174.131 91.5211 173.44 90.8338C172.75 90.1465 172.362 89.2144 172.362 88.2424C172.362 87.2704 172.75 86.3382 173.44 85.6509C174.131 84.9636 175.067 84.5775 176.044 84.5775H190.058C191.034 84.5775 191.971 84.9636 192.661 85.6509C193.352 86.3382 193.74 87.2704 193.74 88.2424C193.74 89.2144 193.352 90.1465 192.661 90.8338C191.971 91.5211 191.034 91.9072 190.058 91.9072Z" fill="#3F3D56"/>
<path d="M176.978 90.1023C178.01 90.1023 178.846 89.2695 178.846 88.2423C178.846 87.2151 178.01 86.3823 176.978 86.3823C175.946 86.3823 175.109 87.2151 175.109 88.2423C175.109 89.2695 175.946 90.1023 176.978 90.1023Z" fill="#F2F2F2"/>
<path d="M183.051 90.1023C184.083 90.1023 184.919 89.2695 184.919 88.2423C184.919 87.2151 184.083 86.3823 183.051 86.3823C182.019 86.3823 181.182 87.2151 181.182 88.2423C181.182 89.2695 182.019 90.1023 183.051 90.1023Z" fill="#F2F2F2"/>
<path d="M189.124 90.1023C190.156 90.1023 190.992 89.2695 190.992 88.2423C190.992 87.2151 190.156 86.3823 189.124 86.3823C188.092 86.3823 187.255 87.2151 187.255 88.2423C187.255 89.2695 188.092 90.1023 189.124 90.1023Z" fill="#86E9B1"/>
<path d="M58.6547 135.372C61.8587 132.677 63.8048 128.42 63.2944 124.275C62.7841 120.131 59.6229 116.321 55.5225 115.441C51.4221 114.561 46.7479 116.997 45.5025 120.984C44.817 113.297 44.0272 105.288 39.9215 98.7419C36.2038 92.8145 29.7648 88.5732 22.7863 87.8144C15.8078 87.0556 8.46042 89.9214 4.10821 95.4042C-0.244005 100.887 -1.30963 108.858 1.73855 115.152C3.98403 119.789 8.12101 123.24 12.4555 126.048C26.2842 135.005 43.4385 138.031 59.7612 135.64L58.6547 135.372Z" fill="#F2F2F2"/>
<path d="M11.0091 90.0803C16.7672 94.7489 22.0496 99.9703 26.78 105.669C31.5112 111.362 35.6764 117.498 39.2173 123.992C41.1965 127.634 42.9744 131.381 44.5432 135.217C44.8631 135.997 43.5903 136.337 43.274 135.565C40.4953 128.803 37.0576 122.329 33.01 116.234C28.9821 110.162 24.372 104.493 19.2444 99.307C16.3442 96.3751 13.2842 93.6042 10.0784 91.0068C9.42127 90.4741 10.3574 89.5521 11.0091 90.0803Z" fill="white"/>
<path d="M57.5684 23.4074C63.6684 23.4074 68.6134 18.485 68.6134 12.413C68.6134 6.34093 63.6684 1.41858 57.5684 1.41858C51.4684 1.41858 46.5233 6.34093 46.5233 12.413C46.5233 18.485 51.4684 23.4074 57.5684 23.4074Z" fill="#2F2E41"/>
<path d="M98.7618 52.6707C98.5501 52.9875 98.2921 53.2712 97.9963 53.5122C97.5701 53.8619 97.0746 54.118 96.542 54.2638C96.0095 54.4096 95.4521 54.4417 94.9062 54.3581C94.3603 54.2745 93.8384 54.077 93.3745 53.7785C92.9107 53.4801 92.5155 53.0875 92.2147 52.6264C92.1451 52.5189 92.0812 52.4079 92.0233 52.2938L74.6185 50.6223C73.2449 50.4851 71.9523 49.9107 70.9326 48.9843C69.9129 48.058 69.2205 46.829 68.9581 45.4798L67.9702 40.2958L74.7627 39.2439L75.9816 43.3964L92.9511 47.5456C93.0825 47.4308 93.2218 47.3253 93.3681 47.2299C94.1251 46.7409 95.0283 46.5269 95.9254 46.6239C96.8226 46.7209 97.6586 47.123 98.2924 47.7623C98.9262 48.4017 99.3191 49.2392 99.4046 50.1334C99.4901 51.0276 99.263 51.9238 98.7618 52.6707Z" fill="#FFB8B8"/>
<path d="M76.3988 42.7696L68.8112 44.8099C68.4007 44.9198 67.9632 44.8631 67.5947 44.6523C67.2261 44.4415 66.9566 44.0937 66.8453 43.6854L64.1877 33.8926C63.903 32.8437 64.0185 31.7269 64.512 30.7578C65.0055 29.7886 65.842 29.0356 66.8603 28.644C67.8785 28.2524 69.0063 28.2499 70.0262 28.6371C71.0462 29.0242 71.886 29.7735 72.3838 30.7405L77.4077 40.5011C77.5166 40.7127 77.5767 40.9459 77.5835 41.1836C77.5903 41.4213 77.5436 41.6575 77.4469 41.8749C77.3502 42.0924 77.2059 42.2856 77.0246 42.4403C76.8432 42.5951 76.6294 42.7076 76.3988 42.7696Z" fill="#2F2E41"/>
<path d="M72.0038 132.689H76.3715L78.4498 115.918L72.0027 115.918L72.0038 132.689Z" fill="#FFB8B8"/>
<path d="M84.7959 136.726L71.0677 136.727L71.0675 131.447L79.4916 131.447C80.8983 131.446 82.2475 132.003 83.2422 132.993C84.237 133.983 84.7958 135.326 84.7959 136.726Z" fill="#2F2E41"/>
<path d="M33.0718 128.452L37.1584 129.987L45.0546 115.029L39.0233 112.762L33.0718 128.452Z" fill="#FFB8B8"/>
<path d="M43.6066 136.727L30.7634 131.9L32.6369 126.96L40.518 129.922C41.834 130.417 42.8988 131.412 43.478 132.688C44.0572 133.964 44.1035 135.417 43.6066 136.727Z" fill="#2F2E41"/>
<path d="M71.8657 128.794C71.5271 128.793 71.1973 128.686 70.9236 128.488C70.6499 128.29 70.4464 128.01 70.3423 127.689L59.2016 93.4419C59.1685 93.3404 59.1056 93.2511 59.021 93.1856C58.9363 93.1202 58.8338 93.0816 58.7269 93.0748C58.6199 93.068 58.5133 93.0935 58.421 93.1477C58.3288 93.202 58.255 93.2827 58.2093 93.3792L42.7696 126.079C42.6024 126.433 42.3108 126.713 41.95 126.867C41.5892 127.021 41.1842 127.038 40.8117 126.914L34.7309 124.897C34.3447 124.768 34.0221 124.498 33.8284 124.141C33.6347 123.784 33.5845 123.367 33.6877 122.975L43.1453 87.3154C44.1349 83.5381 44.8498 79.6946 45.2843 75.815C45.9475 69.4263 48.9565 63.5062 53.7344 59.1897C55.8205 57.2872 57.1767 54.7214 57.5702 51.9324L57.5957 51.754L71.4461 53.9308L80.2192 125.192C80.2646 125.573 80.171 125.958 79.9554 126.276C79.7398 126.595 79.4166 126.825 79.0446 126.927L72.2844 128.738C72.1479 128.775 72.0071 128.794 71.8657 128.794Z" fill="#2F2E41"/>
<path d="M61.9561 23.3551C66.7891 23.3551 70.707 19.4552 70.707 14.6444C70.707 9.83353 66.7891 5.93359 61.9561 5.93359C57.1231 5.93359 53.2052 9.83353 53.2052 14.6444C53.2052 19.4552 57.1231 23.3551 61.9561 23.3551Z" fill="#FFB8B8"/>
<path d="M70.5854 55.4502C70.558 55.4502 70.5306 55.4495 70.5029 55.4481L56.7729 54.7648C56.3897 54.7476 56.0255 54.5934 55.7473 54.3305C55.469 54.0677 55.2953 53.7137 55.258 53.3337L53.3823 35.1298C53.245 33.7967 53.4373 32.4504 53.9424 31.2082C54.4475 29.966 55.2501 28.8656 56.2803 28.0029C57.3105 27.1402 58.537 26.5414 59.8529 26.2586C61.1688 25.9758 62.5343 26.0176 63.8303 26.3804C64.904 26.6731 65.9046 27.1855 66.7682 27.8847C76.4266 35.7802 73.3124 50.0857 72.1278 54.282C72.035 54.6181 71.8337 54.9145 71.555 55.1256C71.2763 55.3367 70.9356 55.4508 70.5854 55.4502Z" fill="#86E9B1"/>
<path d="M58.6408 67.6738C58.2585 67.6739 57.8784 67.6171 57.5129 67.5055C56.9844 67.346 56.4956 67.0772 56.0787 66.7166C55.6618 66.3561 55.3261 65.9119 55.0937 65.4132C54.8613 64.9145 54.7374 64.3725 54.73 63.8228C54.7227 63.2731 54.8322 62.728 55.0512 62.2233C55.1025 62.1061 55.16 61.9917 55.2234 61.8805L46.9805 46.5304C46.3343 45.3161 46.0987 43.9267 46.3087 42.5684C46.5187 41.2102 47.1631 39.9556 48.1462 38.9908L51.9349 35.3005L56.5772 40.3471L53.7793 43.6575L59.7087 60.0192C59.8775 60.0645 60.0429 60.1216 60.2037 60.19C61.032 60.5464 61.7114 61.1764 62.1272 61.9736C62.543 62.7708 62.6698 63.6864 62.4861 64.5659C62.3024 65.4453 61.8196 66.2348 61.1191 66.801C60.4185 67.3672 59.5432 67.6755 58.6408 67.6738Z" fill="#FFB8B8"/>
<path d="M54.5346 43.6561L48.6251 38.4981C48.3058 38.2187 48.1109 37.8247 48.083 37.4025C48.0552 36.9803 48.1968 36.5643 48.4767 36.2459L55.1952 28.619C55.9149 27.802 56.9129 27.2792 57.9969 27.1513C59.0809 27.0234 60.174 27.2996 61.0656 27.9265C61.9571 28.5534 62.5839 29.4867 62.8251 30.5464C63.0663 31.6061 62.9047 32.7172 62.3717 33.6654L56.9908 43.2356C56.8741 43.4431 56.7124 43.622 56.5173 43.7593C56.3223 43.8966 56.0989 43.9888 55.8634 44.0291C55.628 44.0694 55.3865 44.0568 55.1566 43.9923C54.9267 43.9277 54.7142 43.8129 54.5346 43.6561Z" fill="#2F2E41"/>
<path d="M56.3249 23.1057C57.1233 23.3875 58.1021 23.636 58.7304 23.0515C59.3438 22.4809 59.2321 21.4375 58.8707 20.6687C58.5094 19.9 57.949 19.2159 57.7772 18.3792C57.5309 17.1801 58.1676 15.9343 59.0765 15.1525C59.9853 14.3707 61.1294 13.9601 62.2462 13.5649L68.3719 11.3973C69.8883 10.8607 71.5222 10.2305 72.3708 8.81851C73.5986 6.77546 72.4761 3.85504 70.4622 2.66289C68.4482 1.47073 65.9044 1.69282 63.7316 2.53109C62.5298 2.99472 61.3866 3.6336 60.1438 3.95997C57.691 4.60409 54.9021 4.02625 52.7466 5.40289C50.8703 6.60125 50.0001 9.04643 50.0633 11.3343C50.1265 13.6222 50.9727 15.801 51.8654 17.8934C52.3964 19.1382 52.9637 20.3974 53.8632 21.3875C54.7627 22.3776 56.0626 23.0702 57.361 22.888L56.3249 23.1057Z" fill="#2F2E41"/>
<path d="M48.3048 14.1863C52.2403 14.1863 55.4306 11.0106 55.4306 7.09315C55.4306 3.17571 52.2403 0 48.3048 0C44.3693 0 41.179 3.17571 41.179 7.09315C41.179 11.0106 44.3693 14.1863 48.3048 14.1863Z" fill="#2F2E41"/>
<path d="M106.099 48.0385L105.973 48.0212L106.449 44.573C106.522 44.0437 106.381 43.5071 106.057 43.0814C105.733 42.6557 105.252 42.3756 104.72 42.3028L97.3804 41.2986C96.8486 41.2258 96.3096 41.3663 95.8819 41.6891C95.4542 42.012 95.1728 42.4907 95.0997 43.02L92.4872 61.9376C92.4142 62.4669 92.5553 63.0035 92.8796 63.4292C93.2039 63.855 93.6849 64.135 94.2166 64.2078L101.556 65.2121C102.088 65.2848 102.627 65.1443 103.055 64.8215C103.482 64.4987 103.764 64.0199 103.837 63.4906L105.634 50.4758L105.76 50.4931L106.099 48.0385Z" fill="#3F3D56"/>
<path d="M104.489 43.3144L103.575 43.1894C103.603 43.2977 103.604 43.4112 103.577 43.5198C103.551 43.6284 103.498 43.7289 103.423 43.8123C103.348 43.8958 103.254 43.9596 103.149 43.9983C103.043 44.0369 102.93 44.0491 102.819 44.0339L98.808 43.4851C98.6967 43.4699 98.5909 43.4277 98.4999 43.3621C98.4089 43.2966 98.3355 43.2098 98.2861 43.1094C98.2367 43.009 98.2129 42.898 98.2168 42.7863C98.2206 42.6745 98.252 42.5655 98.3082 42.4687L97.4547 42.3519C97.2672 42.3262 97.0764 42.3376 96.8932 42.3853C96.7101 42.433 96.5382 42.5162 96.3873 42.6301C96.2365 42.7439 96.1096 42.8863 96.0141 43.0489C95.9185 43.2116 95.856 43.3914 95.8302 43.5781L93.3419 61.5962C93.2899 61.9733 93.3904 62.3554 93.6214 62.6587C93.8524 62.962 94.195 63.1615 94.5738 63.2133L101.608 64.1758C101.987 64.2277 102.371 64.1276 102.676 63.8976C102.98 63.6677 103.181 63.3267 103.233 62.9496L105.721 44.9315C105.773 44.5544 105.673 44.1722 105.441 43.869C105.21 43.5657 104.868 43.3662 104.489 43.3144Z" fill="white"/>
<path d="M99.5003 58.2738C101.665 58.2738 103.419 56.5271 103.419 54.3725C103.419 52.218 101.665 50.4713 99.5003 50.4713C97.3357 50.4713 95.5811 52.218 95.5811 54.3725C95.5811 56.5271 97.3357 58.2738 99.5003 58.2738Z" fill="#86E9B1"/>
<path d="M99.1118 55.8608C99.0236 55.861 98.9378 55.8326 98.8672 55.78L98.8628 55.7767L97.9418 55.0747C97.8989 55.0423 97.8629 55.0017 97.8357 54.9554C97.8086 54.909 97.791 54.8578 97.7838 54.8047C97.7766 54.7515 97.7801 54.6975 97.7939 54.6457C97.8078 54.5938 97.8318 54.5453 97.8645 54.5027C97.8973 54.4601 97.9382 54.4244 97.9849 54.3976C98.0315 54.3708 98.083 54.3534 98.1365 54.3465C98.1899 54.3396 98.2442 54.3432 98.2962 54.3572C98.3482 54.3712 98.3969 54.3953 98.4395 54.4281L99.0361 54.8835L100.446 53.0533C100.479 53.0108 100.519 52.9752 100.566 52.9484C100.612 52.9217 100.664 52.9043 100.717 52.8973C100.77 52.8903 100.825 52.8938 100.876 52.9076C100.928 52.9215 100.977 52.9453 101.02 52.9779C101.106 53.0437 101.162 53.141 101.176 53.248C101.191 53.3551 101.162 53.4634 101.096 53.5491L99.4373 55.7019C99.399 55.7515 99.3496 55.7916 99.2932 55.8192C99.2367 55.8467 99.1747 55.861 99.1118 55.8608Z" fill="white"/>
<path d="M301.576 137H2.54214C2.42984 137 2.32226 136.955 2.24296 136.876C2.16367 136.797 2.11914 136.689 2.11914 136.578C2.11914 136.466 2.16367 136.359 2.24296 136.28C2.32226 136.2 2.42984 136.156 2.54214 136.155H301.576C301.688 136.155 301.796 136.2 301.876 136.279C301.955 136.358 302 136.466 302 136.578C302 136.69 301.955 136.797 301.876 136.876C301.796 136.955 301.688 137 301.576 137Z" fill="#CCCCCC"/>
</g>
<defs>
<clipPath id="clip0_62_163">
<rect width="302" height="137" fill="white"/>
</clipPath>
</defs>
</svg>
